<svg width="10" height="9" viewBox="0 0 10 9" fill="none" xmlns="http://www.w3.org/2000/svg">
<path d="M3.55039 3.30532V5.6878C3.55039 5.86592 3.62832 5.99581 3.78418 6.07745C3.94005 6.1591 4.0922 6.15167 4.24064 6.05519L6.08873 4.87508C6.22975 4.79344 6.30026 4.66727 6.30026 4.49656C6.30026 4.32585 6.22975 4.19968 6.08873 4.11803L4.24064 2.93793C4.0922 2.84144 3.94005 2.83402 3.78418 2.91566C3.62832 2.99731 3.55039 3.12719 3.55039 3.30532ZM4.6637 8.94978C4.04767 8.94978 3.46875 8.83281 2.92694 8.59887C2.38513 8.36522 1.91383 8.04801 1.51304 7.64721C1.11225 7.24642 0.795032 6.77512 0.561386 6.23332C0.327443 5.69151 0.210472 5.11259 0.210472 4.49656C0.210472 3.88053 0.327443 3.30161 0.561386 2.7598C0.795032 2.21799 1.11225 1.74669 1.51304 1.3459C1.91383 0.945113 2.38513 0.627746 2.92694 0.393804C3.46875 0.160158 4.04767 0.043335 4.6637 0.043335C5.27973 0.043335 5.85864 0.160158 6.40045 0.393804C6.94226 0.627746 7.41356 0.945113 7.81435 1.3459C8.21514 1.74669 8.53236 2.21799 8.76601 2.7598C8.99995 3.30161 9.11692 3.88053 9.11692 4.49656C9.11692 5.11259 8.99995 5.69151 8.76601 6.23332C8.53236 6.77512 8.21514 7.24642 7.81435 7.64721C7.41356 8.04801 6.94226 8.36522 6.40045 8.59887C5.85864 8.83281 5.27973 8.94978 4.6637 8.94978ZM4.6637 8.05914C5.65083 8.05914 6.49145 7.71223 7.18556 7.01842C7.87937 6.32431 8.22627 5.48369 8.22627 4.49656C8.22627 3.50943 7.87937 2.66881 7.18556 1.9747C6.49145 1.28089 5.65083 0.93398 4.6637 0.93398C3.67656 0.93398 2.83609 1.28089 2.14228 1.9747C1.44817 2.66881 1.10112 3.50943 1.10112 4.49656C1.10112 5.48369 1.44817 6.32431 2.14228 7.01842C2.83609 7.71223 3.67656 8.05914 4.6637 8.05914Z" fill="white"/>
</svg>
